VirtuaGrotesk-Bold.ufo
<glyph name="slash" format="2">
  <advance width="432"/>
  <unicode hex="002F"/>
  <outline>
    <contour>
      <point x="64" y="-144" type="line"/>
      <point x="120" y="-144" type="line"/>
      <point x="136" y="-128" type="line"/>
      <point x="400" y="752" type="line"/>
      <point x="400" y="768" type="line"/>
      <point x="384" y="784" type="line"/>
      <point x="328" y="784" type="line"/>
      <point x="312" y="768" type="line"/>
      <point x="48" y="-112" type="line"/>
      <point x="48" y="-128" type="line"/>
    </contour>
  </outline>
</glyph>
<glyph name="zero" format="2">
  <advance width="712"/>
  <unicode hex="0030"/>
  <outline>
    <contour>
      <point x="356" y="-16" type="curve" smooth="yes"/>
      <point x="508" y="-16"/>
      <point x="664" y="80"/>
      <point x="664" y="372" type="curve" smooth="yes"/>
      <point x="664" y="664"/>
      <point x="508" y="760"/>
      <point x="356" y="760" type="curve" smooth="yes"/>
      <point x="204" y="760"/>
      <point x="48" y="664"/>
      <point x="48" y="372" type="curve" smooth="yes"/>
      <point x="48" y="80"/>
      <point x="204" y="-16"/>
    </contour>
    <contour>
      <point x="356" y="128" type="curve" smooth="yes"/>
      <point x="276" y="128"/>
      <point x="220" y="208"/>
      <point x="220" y="372" type="curve" smooth="yes"/>
      <point x="220" y="536"/>
      <point x="276" y="616"/>
      <point x="356" y="616" type="curve" smooth="yes"/>
      <point x="436" y="616"/>
      <point x="492" y="536"/>
      <point x="492" y="372" type="curve" smooth="yes"/>
      <point x="492" y="208"/>
      <point x="436" y="128"/>
    </contour>
  </outline>
</glyph>
<glyph name="one" format="2">
  <advance width="432"/>
  <unicode hex="0031"/>
  <outline>
    <contour>
      <point x="220" y="0" type="line"/>
      <point x="380" y="0" type="line"/>
      <point x="396" y="16" type="line"/>
      <point x="396" y="728" type="line"/>
      <point x="380" y="744" type="line"/>
      <point x="276" y="744" type="line"/>
      <point x="260" y="728" type="line"/>
      <point x="244" y="636"/>
      <point x="172" y="576"/>
      <point x="56" y="576" type="curve"/>
      <point x="40" y="560" type="line"/>
      <point x="40" y="488" type="line"/>
      <point x="56" y="472" type="line"/>
      <point x="220" y="472" type="line"/>
      <point x="228" y="464" type="line"/>
      <point x="228" y="16" type="line"/>
    </contour>
  </outline>
</glyph>
<glyph name="two" format="2">
  <advance width="666"/>
  <unicode hex="0032"/>
  <outline>
    <contour>
      <point x="40" y="0" type="line"/>
      <point x="608" y="0" type="line"/>
      <point x="624" y="16" type="line"/>
      <point x="624" y="120" type="line"/>
      <point x="608" y="136" type="line"/>
      <point x="256" y="136" type="line"/>
      <point x="248" y="144" type="line"/>
      <point x="248" y="172"/>
      <point x="308" y="240"/>
      <point x="412" y="296" type="curve" smooth="yes"/>
      <point x="536" y="364"/>
      <point x="618" y="442"/>
      <point x="618" y="560" type="curve" smooth="yes"/>
      <point x="618" y="680"/>
      <point x="538" y="760"/>
      <point x="338" y="760" type="curve" smooth="yes"/>
      <point x="158" y="760"/>
      <point x="50" y="648"/>
      <point x="50" y="472" type="curve"/>
      <point x="66" y="456" type="line"/>
      <point x="206" y="456" type="line"/>
      <point x="222" y="472" type="line"/>
      <point x="222" y="556"/>
      <point x="266" y="616"/>
      <point x="338" y="616" type="curve" smooth="yes"/>
      <point x="410" y="616"/>
      <point x="454" y="576"/>
      <point x="454" y="528" type="curve" smooth="yes"/>
      <point x="454" y="468"/>
      <point x="402" y="420"/>
      <point x="308" y="372" type="curve" smooth="yes"/>
      <point x="144" y="290"/>
      <point x="24" y="164"/>
      <point x="24" y="40" type="curve" smooth="yes"/>
      <point x="24" y="16" type="line"/>
    </contour>
  </outline>
</glyph>
<glyph name="three" format="2">
  <advance width="700"/>
  <unicode hex="0033"/>
  <outline>
    <contour>
      <point x="354" y="-16" type="curve" smooth="yes"/>
      <point x="538" y="-16"/>
      <point x="652" y="74"/>
      <point x="652" y="224" type="curve" smooth="yes"/>
      <point x="652" y="308"/>
      <point x="598" y="378"/>
      <point x="506" y="400" type="curve"/>
      <point x="506" y="408" type="line"/>
      <point x="578" y="434"/>
      <point x="624" y="490"/>
      <point x="624" y="578" type="curve" smooth="yes"/>
      <point x="624" y="686"/>
      <point x="520" y="760"/>
      <point x="352" y="760" type="curve" smooth="yes"/>
      <point x="186" y="760"/>
      <point x="78" y="676"/>
      <point x="62" y="532" type="curve"/>
      <point x="62" y="516" type="line"/>
      <point x="78" y="500" type="line"/>
      <point x="218" y="500" type="line"/>
      <point x="234" y="516" type="line"/>
      <point x="242" y="584"/>
      <point x="278" y="616"/>
      <point x="352" y="616" type="curve" smooth="yes"/>
      <point x="418" y="616"/>
      <point x="456" y="580"/>
      <point x="456" y="538" type="curve" smooth="yes"/>
      <point x="456" y="482"/>
      <point x="430" y="448"/>
      <point x="348" y="448" type="curve" smooth="yes"/>
      <point x="268" y="448" type="line"/>
      <point x="252" y="432" type="line"/>
      <point x="252" y="352" type="line"/>
      <point x="268" y="336" type="line"/>
      <point x="348" y="336" type="line" smooth="yes"/>
      <point x="430" y="336"/>
      <point x="484" y="292"/>
      <point x="484" y="224" type="curve" smooth="yes"/>
      <point x="484" y="156"/>
      <point x="430" y="128"/>
      <point x="354" y="128" type="curve" smooth="yes"/>
      <point x="270" y="128"/>
      <point x="222" y="168"/>
      <point x="212" y="244" type="curve"/>
      <point x="196" y="260" type="line"/>
      <point x="52" y="260" type="line"/>
      <point x="36" y="244" type="line"/>
      <point x="36" y="228" type="line"/>
      <point x="52" y="78"/>
      <point x="174" y="-16"/>
    </contour>
  </outline>
</glyph>
<glyph name="four" format="2">
  <advance width="670"/>
  <unicode hex="0034"/>
  <outline>
    <contour>
      <point x="428" y="0" type="line"/>
      <point x="588" y="0" type="line"/>
      <point x="604" y="16" type="line"/>
      <point x="604" y="150" type="line"/>
      <point x="612" y="158" type="line"/>
      <point x="646" y="158" type="line"/>
      <point x="662" y="174" type="line"/>
      <point x="662" y="278" type="line"/>
      <point x="646" y="294" type="line"/>
      <point x="612" y="294" type="line"/>
      <point x="604" y="302" type="line"/>
      <point x="604" y="728" type="line"/>
      <point x="588" y="744" type="line"/>
      <point x="460" y="744" type="line"/>
      <point x="8" y="286" type="line"/>
      <point x="8" y="174" type="line"/>
      <point x="24" y="158" type="line"/>
      <point x="420" y="158" type="line"/>
      <point x="428" y="150" type="line"/>
      <point x="428" y="16" type="line"/>
    </contour>
    <contour>
      <point x="188" y="294" type="line"/>
      <point x="188" y="302" type="line"/>
      <point x="420" y="560" type="line"/>
      <point x="428" y="560" type="line"/>
      <point x="428" y="302" type="line"/>
      <point x="420" y="294" type="line"/>
    </contour>
  </outline>
</glyph>
<glyph name="five" format="2">
  <advance width="676"/>
  <unicode hex="0035"/>
  <outline>
    <contour>
      <point x="332" y="-16" type="curve" smooth="yes"/>
      <point x="502" y="-16"/>
      <point x="628" y="72"/>
      <point x="628" y="268" type="curve" smooth="yes"/>
      <point x="628" y="414"/>
      <point x="522" y="520"/>
      <point x="358" y="520" type="curve" smooth="yes"/>
      <point x="292" y="520"/>
      <point x="246" y="496"/>
      <point x="212" y="470" type="curve"/>
      <point x="204" y="470" type="line"/>
      <point x="238" y="616" type="line"/>
      <point x="246" y="624" type="line"/>
      <point x="568" y="624" type="line"/>
      <point x="584" y="640" type="line"/>
      <point x="584" y="728" type="line"/>
      <point x="568" y="744" type="line"/>
      <point x="148" y="744" type="line"/>
      <point x="132" y="728" type="line"/>
      <point x="52" y="364" type="line"/>
      <point x="52" y="348" type="line"/>
      <point x="68" y="332" type="line"/>
      <point x="204" y="332" type="line"/>
      <point x="228" y="372"/>
      <point x="270" y="392"/>
      <point x="338" y="392" type="curve" smooth="yes"/>
      <point x="418" y="392"/>
      <point x="464" y="344"/>
      <point x="464" y="268" type="curve" smooth="yes"/>
      <point x="464" y="188"/>
      <point x="426" y="128"/>
      <point x="332" y="128" type="curve" smooth="yes"/>
      <point x="262" y="128"/>
      <point x="212" y="164"/>
      <point x="196" y="228" type="curve"/>
      <point x="180" y="244" type="line"/>
      <point x="36" y="244" type="line"/>
      <point x="20" y="228" type="line"/>
      <point x="20" y="100"/>
      <point x="140" y="-16"/>
    </contour>
  </outline>
</glyph>
<glyph name="six" format="2">
  <advance width="708"/>
  <unicode hex="0036"/>
  <outline>
    <contour>
      <point x="352" y="-16" type="curve" smooth="yes"/>
      <point x="536" y="-16"/>
      <point x="652" y="84"/>
      <point x="652" y="244" type="curve" smooth="yes"/>
      <point x="652" y="400"/>
      <point x="534" y="504"/>
      <point x="380" y="504" type="curve" smooth="yes"/>
      <point x="294" y="504"/>
      <point x="234" y="460"/>
      <point x="202" y="424" type="curve"/>
      <point x="194" y="424" type="line"/>
      <point x="194" y="580"/>
      <point x="256" y="616"/>
      <point x="344" y="616" type="curve" smooth="yes"/>
      <point x="404" y="616"/>
      <point x="436" y="588"/>
      <point x="444" y="552" type="curve"/>
      <point x="460" y="536" type="line"/>
      <point x="600" y="536" type="line"/>
      <point x="616" y="552" type="line"/>
      <point x="616" y="568" type="line"/>
      <point x="600" y="656"/>
      <point x="524" y="760"/>
      <point x="344" y="760" type="curve" smooth="yes"/>
      <point x="156" y="760"/>
      <point x="48" y="616"/>
      <point x="48" y="366" type="curve" smooth="yes"/>
      <point x="48" y="84"/>
      <point x="182" y="-16"/>
    </contour>
    <contour>
      <point x="364" y="128" type="curve" smooth="yes"/>
      <point x="284" y="128"/>
      <point x="232" y="176"/>
      <point x="232" y="244" type="curve" smooth="yes"/>
      <point x="232" y="312"/>
      <point x="284" y="360"/>
      <point x="364" y="360" type="curve" smooth="yes"/>
      <point x="444" y="360"/>
      <point x="496" y="312"/>
      <point x="496" y="244" type="curve" smooth="yes"/>
      <point x="496" y="176"/>
      <point x="444" y="128"/>
    </contour>
  </outline>
</glyph>
<glyph name="seven" format="2">
  <advance width="620"/>
  <unicode hex="0037"/>
  <outline>
    <contour>
      <point x="152" y="0" type="line"/>
      <point x="312" y="0" type="line"/>
      <point x="328" y="16" type="line"/>
      <point x="338" y="250"/>
      <point x="412" y="490"/>
      <point x="588" y="632" type="curve"/>
      <point x="588" y="728" type="line"/>
      <point x="572" y="744" type="line"/>
      <point x="32" y="744" type="line"/>
      <point x="16" y="728" type="line"/>
      <point x="16" y="632" type="line"/>
      <point x="32" y="616" type="line"/>
      <point x="386" y="616" type="line"/>
      <point x="386" y="608" type="line"/>
      <point x="266" y="502"/>
      <point x="136" y="282"/>
      <point x="136" y="16" type="curve"/>
    </contour>
  </outline>
</glyph>
<glyph name="eight" format="2">
  <advance width="712"/>
  <unicode hex="0038"/>
  <outline>
    <contour>
      <point x="356" y="-16" type="curve" smooth="yes"/>
      <point x="556" y="-16"/>
      <point x="664" y="72"/>
      <point x="664" y="228" type="curve" smooth="yes"/>
      <point x="664" y="328"/>
      <point x="586" y="400"/>
      <point x="510" y="416" type="curve"/>
      <point x="510" y="424" type="line"/>
      <point x="552" y="440"/>
      <point x="628" y="484"/>
      <point x="628" y="572" type="curve" smooth="yes"/>
      <point x="628" y="684"/>
      <point x="538" y="760"/>
      <point x="356" y="760" type="curve" smooth="yes"/>
      <point x="176" y="760"/>
      <point x="84" y="684"/>
      <point x="84" y="572" type="curve" smooth="yes"/>
      <point x="84" y="484"/>
      <point x="158" y="440"/>
      <point x="202" y="424" type="curve"/>
      <point x="202" y="416" type="line"/>
      <point x="140" y="400"/>
      <point x="48" y="328"/>
      <point x="48" y="228" type="curve" smooth="yes"/>
      <point x="48" y="72"/>
      <point x="156" y="-16"/>
    </contour>
    <contour>
      <point x="356" y="464" type="curve" smooth="yes"/>
      <point x="276" y="464"/>
      <point x="232" y="500"/>
      <point x="232" y="556" type="curve" smooth="yes"/>
      <point x="232" y="612"/>
      <point x="276" y="616"/>
      <point x="356" y="616" type="curve" smooth="yes"/>
      <point x="436" y="616"/>
      <point x="480" y="612"/>
      <point x="480" y="556" type="curve" smooth="yes"/>
      <point x="480" y="500"/>
      <point x="436" y="464"/>
    </contour>
    <contour>
      <point x="356" y="128" type="curve" smooth="yes"/>
      <point x="260" y="128"/>
      <point x="204" y="164"/>
      <point x="204" y="228" type="curve" smooth="yes"/>
      <point x="204" y="292"/>
      <point x="260" y="328"/>
      <point x="356" y="328" type="curve" smooth="yes"/>
      <point x="452" y="328"/>
      <point x="508" y="292"/>
      <point x="508" y="228" type="curve" smooth="yes"/>
      <point x="508" y="164"/>
      <point x="452" y="128"/>
    </contour>
  </outline>
</glyph>
<glyph name="nine" format="2">
  <advance width="700"/>
  <unicode hex="0039"/>
  <outline>
    <contour>
      <point x="348" y="760" type="curve" smooth="yes"/>
      <point x="164" y="760"/>
      <point x="48" y="660"/>
      <point x="48" y="500" type="curve" smooth="yes"/>
      <point x="48" y="344"/>
      <point x="166" y="240"/>
      <point x="320" y="240" type="curve" smooth="yes"/>
      <point x="406" y="240"/>
      <point x="466" y="284"/>
      <point x="498" y="320" type="curve"/>
      <point x="506" y="320" type="line"/>
      <point x="506" y="164"/>
      <point x="444" y="128"/>
      <point x="356" y="128" type="curve" smooth="yes"/>
      <point x="296" y="128"/>
      <point x="264" y="156"/>
      <point x="256" y="192" type="curve"/>
      <point x="240" y="208" type="line"/>
      <point x="100" y="208" type="line"/>
      <point x="84" y="192" type="line"/>
      <point x="84" y="176" type="line"/>
      <point x="100" y="88"/>
      <point x="176" y="-16"/>
      <point x="356" y="-16" type="curve" smooth="yes"/>
      <point x="544" y="-16"/>
      <point x="652" y="128"/>
      <point x="652" y="378" type="curve" smooth="yes"/>
      <point x="652" y="660"/>
      <point x="518" y="760"/>
    </contour>
    <contour>
      <point x="336" y="616" type="curve" smooth="yes"/>
      <point x="416" y="616"/>
      <point x="468" y="568"/>
      <point x="468" y="500" type="curve" smooth="yes"/>
      <point x="468" y="432"/>
      <point x="416" y="384"/>
      <point x="336" y="384" type="curve" smooth="yes"/>
      <point x="256" y="384"/>
      <point x="204" y="432"/>
      <point x="204" y="500" type="curve" smooth="yes"/>
      <point x="204" y="568"/>
      <point x="256" y="616"/>
    </contour>
  </outline>
</glyph>
<glyph name="A" format="2">
  <advance width="744"/>
  <unicode hex="0041"/>
  <outline>
    <contour>
      <point x="40" y="0" type="line"/>
      <point x="176" y="0" type="line"/>
      <point x="192" y="16" type="line"/>
      <point x="232" y="128" type="line"/>
      <point x="240" y="136" type="line"/>
      <point x="496" y="136" type="line"/>
      <point x="504" y="128" type="line"/>
      <point x="540" y="16" type="line"/>
      <point x="556" y="0" type="line"/>
      <point x="704" y="0" type="line"/>
      <point x="720" y="16" type="line"/>
      <point x="720" y="64" type="line"/>
      <point x="468" y="752" type="line"/>
      <point x="452" y="768" type="line"/>
      <point x="288" y="768" type="line"/>
      <point x="272" y="752" type="line"/>
      <point x="24" y="64" type="line"/>
      <point x="24" y="16" type="line"/>
    </contour>
    <contour>
      <point x="280" y="274" type="line"/>
      <point x="272" y="282" type="line"/>
      <point x="364" y="568" type="line"/>
      <point x="372" y="568" type="line"/>
      <point x="456" y="282" type="line"/>
      <point x="448" y="274" type="line"/>
    </contour>
  </outline>
</glyph>
<glyph name="B" format="2">
  <advance width="764"/>
  <unicode hex="0042"/>
  <outline>
    <contour>
      <point x="96" y="0" type="line"/>
      <point x="444" y="0" type="line" smooth="yes"/>
      <point x="588" y="0"/>
      <point x="684" y="78"/>
      <point x="684" y="206" type="curve" smooth="yes"/>
      <point x="684" y="318"/>
      <point x="606" y="392"/>
      <point x="520" y="404" type="curve"/>
      <point x="520" y="412" type="line"/>
      <point x="584" y="428"/>
      <point x="644" y="492"/>
      <point x="644" y="572" type="curve" smooth="yes"/>
      <point x="644" y="700"/>
      <point x="552" y="768"/>
      <point x="408" y="768" type="curve" smooth="yes"/>
      <point x="96" y="768" type="line"/>
      <point x="80" y="752" type="line"/>
      <point x="80" y="16" type="line"/>
    </contour>
    <contour>
      <point x="288" y="470" type="line"/>
      <point x="280" y="478" type="line"/>
      <point x="280" y="624" type="line"/>
      <point x="288" y="632" type="line"/>
      <point x="416" y="632" type="line" smooth="yes"/>
      <point x="468" y="632"/>
      <point x="496" y="596"/>
      <point x="496" y="552" type="curve" smooth="yes"/>
      <point x="496" y="508"/>
      <point x="468" y="470"/>
      <point x="416" y="470" type="curve" smooth="yes"/>
    </contour>
    <contour>
      <point x="288" y="144" type="line"/>
      <point x="280" y="152" type="line"/>
      <point x="280" y="318" type="line"/>
      <point x="288" y="326" type="line"/>
      <point x="452" y="326" type="line" smooth="yes"/>
      <point x="504" y="326"/>
      <point x="536" y="286"/>
      <point x="536" y="234" type="curve" smooth="yes"/>
      <point x="536" y="182"/>
      <point x="504" y="144"/>
      <point x="452" y="144" type="curve" smooth="yes"/>
    </contour>
  </outline>
</glyph>
<glyph name="C" format="2">
  <advance width="784"/>
  <unicode hex="0043"/>
  <outline>
    <contour>
      <point x="416" y="-16" type="curve" smooth="yes"/>
      <point x="626" y="-16"/>
      <point x="728" y="128"/>
      <point x="752" y="264" type="curve"/>
      <point x="752" y="280" type="line"/>
      <point x="736" y="296" type="line"/>
      <point x="600" y="296" type="line"/>
      <point x="584" y="280" type="line"/>
      <point x="566" y="206"/>
      <point x="526" y="144"/>
      <point x="416" y="144" type="curve" smooth="yes"/>
      <point x="304" y="144"/>
      <point x="236" y="240"/>
      <point x="236" y="384" type="curve" smooth="yes"/>
      <point x="236" y="528"/>
      <point x="304" y="624"/>
      <point x="408" y="624" type="curve" smooth="yes"/>
      <point x="510" y="624"/>
      <point x="558" y="572"/>
      <point x="576" y="520" type="curve"/>
      <point x="592" y="504" type="line"/>
      <point x="728" y="504" type="line"/>
      <point x="744" y="520" type="line"/>
      <point x="744" y="536" type="line"/>
      <point x="720" y="660"/>
      <point x="606" y="784"/>
      <point x="408" y="784" type="curve" smooth="yes"/>
      <point x="192" y="784"/>
      <point x="48" y="616"/>
      <point x="48" y="384" type="curve" smooth="yes"/>
      <point x="48" y="152"/>
      <point x="192" y="-16"/>
    </contour>
  </outline>
</glyph>
<glyph name="D" format="2">
  <advance width="804"/>
  <unicode hex="0044"/>
  <outline>
    <contour>
      <point x="96" y="0" type="line"/>
      <point x="340" y="0" type="line" smooth="yes"/>
      <point x="580" y="0"/>
      <point x="708" y="128"/>
      <point x="708" y="384" type="curve" smooth="yes"/>
      <point x="708" y="640"/>
      <point x="580" y="768"/>
      <point x="340" y="768" type="curve" smooth="yes"/>
      <point x="96" y="768" type="line"/>
      <point x="80" y="752" type="line"/>
      <point x="80" y="16" type="line"/>
    </contour>
    <contour>
      <point x="288" y="144" type="line"/>
      <point x="280" y="152" type="line"/>
      <point x="280" y="616" type="line"/>
      <point x="288" y="624" type="line"/>
      <point x="324" y="624" type="line" smooth="yes"/>
      <point x="480" y="624"/>
      <point x="540" y="548"/>
      <point x="540" y="384" type="curve" smooth="yes"/>
      <point x="540" y="216"/>
      <point x="480" y="144"/>
      <point x="324" y="144" type="curve" smooth="yes"/>
    </contour>
  </outline>
</glyph>
<glyph name="E" format="2">
  <advance width="720"/>
  <unicode hex="0045"/>
  <outline>
    <contour>
      <point x="96" y="0" type="line"/>
      <point x="672" y="0" type="line"/>
      <point x="688" y="16" type="line"/>
      <point x="688" y="128" type="line"/>
      <point x="672" y="144" type="line"/>
      <point x="288" y="144" type="line"/>
      <point x="280" y="152" type="line"/>
      <point x="280" y="310" type="line"/>
      <point x="288" y="318" type="line"/>
      <point x="624" y="318" type="line"/>
      <point x="640" y="334" type="line"/>
      <point x="640" y="454" type="line"/>
      <point x="624" y="470" type="line"/>
      <point x="288" y="470" type="line"/>
      <point x="280" y="478" type="line"/>
      <point x="280" y="624" type="line"/>
      <point x="288" y="632" type="line"/>
      <point x="656" y="632" type="line"/>
      <point x="672" y="648" type="line"/>
      <point x="672" y="752" type="line"/>
      <point x="656" y="768" type="line"/>
      <point x="96" y="768" type="line"/>
      <point x="80" y="752" type="line"/>
      <point x="80" y="16" type="line"/>
    </contour>
  </outline>
</glyph>
<glyph name="F" format="2">
  <advance width="664"/>
  <unicode hex="0046"/>
  <outline>
    <contour>
      <point x="96" y="0" type="line"/>
      <point x="264" y="0" type="line"/>
      <point x="280" y="16" type="line"/>
      <point x="280" y="310" type="line"/>
      <point x="288" y="318" type="line"/>
      <point x="560" y="318" type="line"/>
      <point x="576" y="334" type="line"/>
      <point x="576" y="454" type="line"/>
      <point x="560" y="470" type="line"/>
      <point x="288" y="470" type="line"/>
      <point x="280" y="478" type="line"/>
      <point x="280" y="624" type="line"/>
      <point x="288" y="632" type="line"/>
      <point x="624" y="632" type="line"/>
      <point x="640" y="648" type="line"/>
      <point x="640" y="752" type="line"/>
      <point x="624" y="768" type="line"/>
      <point x="96" y="768" type="line"/>
      <point x="80" y="752" type="line"/>
      <point x="80" y="16" type="line"/>
    </contour>
  </outline>
</glyph>
<glyph name="G" format="2">
  <advance width="864"/>
  <unicode hex="0047"/>
  <outline>
    <contour>
      <point x="416" y="-16" type="curve" smooth="yes"/>
      <point x="512" y="-16"/>
      <point x="600" y="24"/>
      <point x="656" y="120" type="curve"/>
      <point x="664" y="120" type="line"/>
      <point x="664" y="16" type="line"/>
      <point x="680" y="0" type="line"/>
      <point x="808" y="0" type="line"/>
      <point x="824" y="16" type="line"/>
      <point x="824" y="400" type="line"/>
      <point x="808" y="416" type="line"/>
      <point x="448" y="416" type="line"/>
      <point x="432" y="400" type="line"/>
      <point x="432" y="288" type="line"/>
      <point x="448" y="272" type="line"/>
      <point x="624" y="272" type="line"/>
      <point x="632" y="264" type="line"/>
      <point x="632" y="248" type="line" smooth="yes"/>
      <point x="632" y="194"/>
      <point x="572" y="144"/>
      <point x="416" y="144" type="curve" smooth="yes"/>
      <point x="304" y="144"/>
      <point x="236" y="240"/>
      <point x="236" y="384" type="curve" smooth="yes"/>
      <point x="236" y="528"/>
      <point x="304" y="624"/>
      <point x="408" y="624" type="curve" smooth="yes"/>
      <point x="510" y="624"/>
      <point x="558" y="572"/>
      <point x="576" y="520" type="curve"/>
      <point x="592" y="504" type="line"/>
      <point x="728" y="504" type="line"/>
      <point x="744" y="520" type="line"/>
      <point x="744" y="536" type="line"/>
      <point x="720" y="660"/>
      <point x="606" y="784"/>
      <point x="408" y="784" type="curve" smooth="yes"/>
      <point x="192" y="784"/>
      <point x="48" y="616"/>
      <point x="48" y="384" type="curve" smooth="yes"/>
      <point x="48" y="152"/>
      <point x="192" y="-16"/>
    </contour>
  </outline>
</glyph>
<glyph name="I" format="2">
  <advance width="360"/>
  <unicode hex="0049"/>
  <outline>
    <contour>
      <point x="96" y="0" type="line"/>
      <point x="264" y="0" type="line"/>
      <point x="280" y="16" type="line"/>
      <point x="280" y="752" type="line"/>
      <point x="264" y="768" type="line"/>
      <point x="96" y="768" type="line"/>
      <point x="80" y="752" type="line"/>
      <point x="80" y="16" type="line"/>
    </contour>
  </outline>
</glyph>
<glyph name="J" format="2">
  <advance width="600"/>
  <unicode hex="004A"/>
  <outline>
    <contour>
      <point x="248" y="-16" type="curve" smooth="yes"/>
      <point x="408" y="-16"/>
      <point x="480" y="72"/>
      <point x="480" y="224" type="curve" smooth="yes"/>
      <point x="480" y="752" type="line"/>
      <point x="464" y="768" type="line"/>
      <point x="296" y="768" type="line"/>
      <point x="280" y="752" type="line"/>
      <point x="280" y="208" type="line" smooth="yes"/>
      <point x="280" y="176"/>
      <point x="268" y="144"/>
      <point x="248" y="144" type="curve" smooth="yes"/>
      <point x="228" y="144"/>
      <point x="216" y="176"/>
      <point x="216" y="208" type="curve" smooth="yes"/>
      <point x="216" y="308" type="line"/>
      <point x="200" y="324" type="line"/>
      <point x="32" y="324" type="line"/>
      <point x="16" y="308" type="line"/>
      <point x="16" y="224" type="line" smooth="yes"/>
      <point x="16" y="72"/>
      <point x="88" y="-16"/>
    </contour>
  </outline>
</glyph>
<glyph name="K" format="2">
  <advance width="724"/>
  <unicode hex="004B"/>
  <outline>
    <contour>
      <point x="96" y="0" type="line"/>
      <point x="264" y="0" type="line"/>
      <point x="280" y="16" type="line"/>
      <point x="280" y="240" type="line"/>
      <point x="364" y="324" type="line"/>
      <point x="372" y="324" type="line"/>
      <point x="610" y="0" type="line"/>
      <point x="692" y="0" type="line"/>
      <point x="708" y="16" type="line"/>
      <point x="708" y="64" type="line"/>
      <point x="446" y="416" type="line"/>
      <point x="446" y="424" type="line"/>
      <point x="664" y="704" type="line"/>
      <point x="664" y="752" type="line"/>
      <point x="648" y="768" type="line"/>
      <point x="564" y="768" type="line"/>
      <point x="288" y="444" type="line"/>
      <point x="280" y="444" type="line"/>
      <point x="280" y="752" type="line"/>
      <point x="264" y="768" type="line"/>
      <point x="96" y="768" type="line"/>
      <point x="80" y="752" type="line"/>
      <point x="80" y="16" type="line"/>
    </contour>
  </outline>
</glyph>
<glyph name="L" format="2">
  <advance width="656"/>
  <unicode hex="004C"/>
  <outline>
    <contour>
      <point x="96" y="0" type="line"/>
      <point x="616" y="0" type="line"/>
      <point x="632" y="16" type="line"/>
      <point x="632" y="128" type="line"/>
      <point x="616" y="144" type="line"/>
      <point x="288" y="144" type="line"/>
      <point x="280" y="152" type="line"/>
      <point x="280" y="752" type="line"/>
      <point x="264" y="768" type="line"/>
      <point x="96" y="768" type="line"/>
      <point x="80" y="752" type="line"/>
      <point x="80" y="16" type="line"/>
    </contour>
  </outline>
</glyph>
<glyph name="M" format="2">
  <advance width="1008"/>
  <unicode hex="004D"/>
  <outline>
    <contour>
      <point x="96" y="0" type="line"/>
      <point x="256" y="0" type="line"/>
      <point x="272" y="16" type="line"/>
      <point x="272" y="410" type="line"/>
      <point x="268" y="560" type="line"/>
      <point x="276" y="560" type="line"/>
      <point x="464" y="16" type="line"/>
      <point x="480" y="0" type="line"/>
      <point x="528" y="0" type="line"/>
      <point x="544" y="16" type="line"/>
      <point x="732" y="560" type="line"/>
      <point x="740" y="560" type="line"/>
      <point x="736" y="410" type="line"/>
      <point x="736" y="16" type="line"/>
      <point x="752" y="0" type="line"/>
      <point x="912" y="0" type="line"/>
      <point x="928" y="16" type="line"/>
      <point x="928" y="752" type="line"/>
      <point x="912" y="768" type="line"/>
      <point x="760" y="768" type="line"/>
      <point x="744" y="752" type="line"/>
      <point x="508" y="210" type="line"/>
      <point x="500" y="210" type="line"/>
      <point x="264" y="752" type="line"/>
      <point x="248" y="768" type="line"/>
      <point x="96" y="768" type="line"/>
      <point x="80" y="752" type="line"/>
      <point x="80" y="16" type="line"/>
    </contour>
  </outline>
</glyph>
<glyph name="N" format="2">
  <advance width="870"/>
  <unicode hex="004E"/>
  <outline>
    <contour>
      <point x="96" y="0" type="line"/>
      <point x="264" y="0" type="line"/>
      <point x="280" y="16" type="line"/>
      <point x="280" y="512" type="line"/>
      <point x="288" y="512" type="line"/>
      <point x="582" y="16" type="line"/>
      <point x="598" y="0" type="line"/>
      <point x="774" y="0" type="line"/>
      <point x="790" y="16" type="line"/>
      <point x="790" y="752" type="line"/>
      <point x="774" y="768" type="line"/>
      <point x="606" y="768" type="line"/>
      <point x="590" y="752" type="line"/>
      <point x="590" y="256" type="line"/>
      <point x="582" y="256" type="line"/>
      <point x="288" y="752" type="line"/>
      <point x="272" y="768" type="line"/>
      <point x="96" y="768" type="line"/>
      <point x="80" y="752" type="line"/>
      <point x="80" y="16" type="line"/>
    </contour>
  </outline>
</glyph>
<glyph name="P" format="2">
  <advance width="680"/>
  <unicode hex="0050"/>
  <outline>
    <contour>
      <point x="288" y="454" type="line"/>
      <point x="280" y="462" type="line"/>
      <point x="280" y="616" type="line"/>
      <point x="288" y="624" type="line"/>
      <point x="368" y="624" type="line" smooth="yes"/>
      <point x="412" y="624"/>
      <point x="444" y="588"/>
      <point x="444" y="540" type="curve" smooth="yes"/>
      <point x="444" y="492"/>
      <point x="412" y="454"/>
      <point x="368" y="454" type="curve" smooth="yes"/>
    </contour>
    <contour>
      <point x="96" y="0" type="line"/>
      <point x="264" y="0" type="line"/>
      <point x="280" y="16" type="line"/>
      <point x="280" y="310" type="line"/>
      <point x="288" y="318" type="line"/>
      <point x="376" y="318" type="line" smooth="yes"/>
      <point x="504" y="318"/>
      <point x="604" y="406"/>
      <point x="604" y="536" type="curve" smooth="yes"/>
      <point x="604" y="664"/>
      <point x="504" y="768"/>
      <point x="376" y="768" type="curve" smooth="yes"/>
      <point x="96" y="768" type="line"/>
      <point x="80" y="752" type="line"/>
      <point x="80" y="16" type="line"/>
    </contour>
  </outline>
</glyph>
<glyph name="Q" format="2">
  <advance width="896"/>
  <unicode hex="0051"/>
  <outline>
    <contour>
      <point x="424" y="-16" type="curve" smooth="yes"/>
      <point x="518" y="-16"/>
      <point x="594" y="12"/>
      <point x="656" y="56" type="curve"/>
      <point x="664" y="56" type="line"/>
      <point x="720" y="0" type="line"/>
      <point x="784" y="0" type="line"/>
      <point x="800" y="16" type="line"/>
      <point x="800" y="64" type="line"/>
      <point x="734" y="130" type="line"/>
      <point x="734" y="138" type="line"/>
      <point x="776" y="206"/>
      <point x="800" y="290"/>
      <point x="800" y="384" type="curve" smooth="yes"/>
      <point x="800" y="616"/>
      <point x="656" y="784"/>
      <point x="424" y="784" type="curve" smooth="yes"/>
      <point x="192" y="784"/>
      <point x="48" y="616"/>
      <point x="48" y="384" type="curve" smooth="yes"/>
      <point x="48" y="152"/>
      <point x="192" y="-16"/>
    </contour>
    <contour>
      <point x="424" y="144" type="curve" smooth="yes"/>
      <point x="296" y="144"/>
      <point x="236" y="240"/>
      <point x="236" y="384" type="curve" smooth="yes"/>
      <point x="236" y="528"/>
      <point x="296" y="624"/>
      <point x="424" y="624" type="curve" smooth="yes"/>
      <point x="552" y="624"/>
      <point x="612" y="528"/>
      <point x="612" y="384" type="curve" smooth="yes"/>
      <point x="612" y="330"/>
      <point x="606" y="286"/>
      <point x="592" y="248" type="curve"/>
      <point x="584" y="248" type="line"/>
      <point x="488" y="344" type="line"/>
      <point x="408" y="344" type="line"/>
      <point x="392" y="328" type="line"/>
      <point x="392" y="248" type="line"/>
      <point x="496" y="144" type="line"/>
      <point x="496" y="136" type="line"/>
      <point x="474" y="140"/>
      <point x="450" y="144"/>
    </contour>
  </outline>
</glyph>
<glyph name="R" format="2">
  <advance width="716"/>
  <unicode hex="0052"/>
  <outline>
    <contour>
      <point x="288" y="454" type="line"/>
      <point x="280" y="462" type="line"/>
      <point x="280" y="616" type="line"/>
      <point x="288" y="624" type="line"/>
      <point x="368" y="624" type="line" smooth="yes"/>
      <point x="412" y="624"/>
      <point x="444" y="588"/>
      <point x="444" y="540" type="curve" smooth="yes"/>
      <point x="444" y="492"/>
      <point x="412" y="454"/>
      <point x="368" y="454" type="curve" smooth="yes"/>
    </contour>
    <contour>
      <point x="96" y="0" type="line"/>
      <point x="264" y="0" type="line"/>
      <point x="280" y="16" type="line"/>
      <point x="280" y="310" type="line"/>
      <point x="288" y="318" type="line"/>
      <point x="360" y="318" type="line" smooth="yes"/>
      <point x="428" y="318"/>
      <point x="456" y="284"/>
      <point x="456" y="216" type="curve" smooth="yes"/>
      <point x="456" y="16" type="line"/>
      <point x="472" y="0" type="line"/>
      <point x="632" y="0" type="line"/>
      <point x="648" y="16" type="line"/>
      <point x="648" y="232" type="line" smooth="yes"/>
      <point x="648" y="316"/>
      <point x="600" y="360"/>
      <point x="536" y="368" type="curve"/>
      <point x="536" y="376" type="line"/>
      <point x="584" y="392"/>
      <point x="604" y="438"/>
      <point x="604" y="536" type="curve" smooth="yes"/>
      <point x="604" y="664"/>
      <point x="504" y="768"/>
      <point x="376" y="768" type="curve" smooth="yes"/>
      <point x="96" y="768" type="line"/>
      <point x="80" y="752" type="line"/>
      <point x="80" y="16" type="line"/>
    </contour>
  </outline>
</glyph>
<glyph name="S" format="2">
  <advance width="712"/>
  <unicode hex="0053"/>
  <outline>
    <contour>
      <point x="354" y="-16" type="curve" smooth="yes"/>
      <point x="510" y="-16"/>
      <point x="632" y="56"/>
      <point x="632" y="198" type="curve" smooth="yes"/>
      <point x="632" y="324"/>
      <point x="576" y="394"/>
      <point x="366" y="446" type="curve" smooth="yes"/>
      <point x="244" y="476"/>
      <point x="166" y="508"/>
      <point x="230" y="580" type="curve" smooth="yes"/>
      <point x="230" y="620"/>
      <point x="250" y="640"/>
      <point x="316" y="640" type="curve" smooth="yes"/>
      <point x="402" y="640"/>
      <point x="430" y="588"/>
      <point x="438" y="552" type="curve"/>
      <point x="454" y="536" type="line"/>
      <point x="622" y="536" type="line"/>
      <point x="638" y="552" type="line"/>
      <point x="604" y="576" type="line"/>
      <point x="588" y="682"/>
      <point x="506" y="784"/>
      <point x="316" y="784" type="curve" smooth="yes"/>
      <point x="134" y="784"/>
      <point x="62" y="688"/>
      <point x="62" y="580" type="curve" smooth="yes"/>
      <point x="62" y="452"/>
      <point x="150" y="398"/>
      <point x="316" y="358" type="curve" smooth="yes"/>
      <point x="490" y="316"/>
      <point x="528" y="270"/>
      <point x="480" y="198" type="curve" smooth="yes"/>
      <point x="480" y="148"/>
      <point x="434" y="128"/>
      <point x="354" y="128" type="curve" smooth="yes"/>
      <point x="266" y="128"/>
      <point x="210" y="176"/>
      <point x="198" y="238" type="curve"/>
      <point x="182" y="254" type="line"/>
      <point x="32" y="254" type="line"/>
      <point x="16" y="238" type="line"/>
      <point x="32" y="230" type="line"/>
      <point x="44" y="100"/>
      <point x="154" y="-16"/>
    </contour>
  </outline>
</glyph>
<glyph name="T" format="2">
  <advance width="632"/>
  <unicode hex="0054"/>
  <outline>
    <contour>
      <point x="220" y="0" type="line"/>
      <point x="412" y="0" type="line"/>
      <point x="428" y="16" type="line"/>
      <point x="428" y="624" type="line"/>
      <point x="436" y="632" type="line"/>
      <point x="600" y="632" type="line"/>
      <point x="616" y="648" type="line"/>
      <point x="616" y="752" type="line"/>
      <point x="600" y="768" type="line"/>
      <point x="32" y="768" type="line"/>
      <point x="16" y="752" type="line"/>
      <point x="16" y="648" type="line"/>
      <point x="32" y="632" type="line"/>
      <point x="196" y="632" type="line"/>
      <point x="204" y="624" type="line"/>
      <point x="204" y="16" type="line"/>
    </contour>
  </outline>
</glyph>
<glyph name="U" format="2">
  <advance width="840"/>
  <unicode hex="0055"/>
  <outline>
    <contour>
      <point x="420" y="-16" type="curve" smooth="yes"/>
      <point x="596" y="-16"/>
      <point x="720" y="84"/>
      <point x="720" y="260" type="curve" smooth="yes"/>
      <point x="720" y="752" type="line"/>
      <point x="704" y="768" type="line"/>
      <point x="536" y="768" type="line"/>
      <point x="520" y="752" type="line"/>
      <point x="520" y="276" type="line" smooth="yes"/>
      <point x="520" y="196"/>
      <point x="476" y="144"/>
      <point x="420" y="144" type="curve" smooth="yes"/>
      <point x="364" y="144"/>
      <point x="320" y="196"/>
      <point x="320" y="276" type="curve" smooth="yes"/>
      <point x="320" y="752" type="line"/>
      <point x="304" y="768" type="line"/>
      <point x="136" y="768" type="line"/>
      <point x="120" y="752" type="line"/>
      <point x="120" y="260" type="line" smooth="yes"/>
      <point x="120" y="84"/>
      <point x="244" y="-16"/>
    </contour>
  </outline>
</glyph>
<glyph name="W" format="2">
  <advance width="1096"/>
  <unicode hex="0057"/>
  <anchor x="500" y="0" name="bottom"/>
  <anchor x="500" y="768" name="top"/>
  <outline>
    <contour>
      <point x="206" y="0" type="line"/>
      <point x="374" y="0" type="line"/>
      <point x="390" y="16" type="line"/>
      <point x="520" y="560" type="line"/>
      <point x="528" y="560" type="line"/>
      <point x="658" y="16" type="line"/>
      <point x="674" y="0" type="line"/>
      <point x="838" y="0" type="line"/>
      <point x="858" y="16" type="line"/>
      <point x="1024" y="704" type="line"/>
      <point x="1024" y="752" type="line"/>
      <point x="1008" y="768" type="line"/>
      <point x="888" y="768" type="line"/>
      <point x="872" y="752" type="line"/>
      <point x="750" y="216" type="line"/>
      <point x="742" y="216" type="line"/>
      <point x="620" y="752" type="line"/>
      <point x="604" y="768" type="line"/>
      <point x="440" y="768" type="line"/>
      <point x="424" y="752" type="line"/>
      <point x="302" y="216" type="line"/>
      <point x="294" y="216" type="line"/>
      <point x="172" y="752" type="line"/>
      <point x="156" y="768" type="line"/>
      <point x="40" y="768" type="line"/>
      <point x="24" y="752" type="line"/>
      <point x="24" y="704" type="line"/>
      <point x="190" y="16" type="line"/>
    </contour>
  </outline>
</glyph>
<glyph name="X" format="2">
  <advance width="680"/>
  <unicode hex="0058"/>
  <outline>
    <contour>
      <point x="40" y="0" type="line"/>
      <point x="176" y="0" type="line"/>
      <point x="332" y="250" type="line"/>
      <point x="340" y="250" type="line"/>
      <point x="488" y="0" type="line"/>
      <point x="640" y="0" type="line"/>
      <point x="656" y="16" type="line"/>
      <point x="656" y="64" type="line"/>
      <point x="446" y="358" type="line"/>
      <point x="446" y="366" type="line"/>
      <point x="648" y="704" type="line"/>
      <point x="648" y="752" type="line"/>
      <point x="632" y="768" type="line"/>
      <point x="492" y="768" type="line"/>
      <point x="352" y="536" type="line"/>
      <point x="344" y="536" type="line"/>
      <point x="208" y="768" type="line"/>
      <point x="60" y="768" type="line"/>
      <point x="44" y="752" type="line"/>
      <point x="44" y="704" type="line"/>
      <point x="242" y="358" type="line"/>
      <point x="242" y="350" type="line"/>
      <point x="24" y="64" type="line"/>
      <point x="24" y="16" type="line"/>
    </contour>
  </outline>
</glyph>
<glyph name="Y" format="2">
  <advance width="672"/>
  <unicode hex="0059"/>
  <anchor x="316" y="0" name="bottom"/>
  <anchor x="316" y="800" name="top"/>
  <anchor x="20" y="800" name="topleft"/>
  <outline>
    <contour>
      <point x="240" y="0" type="line"/>
      <point x="432" y="0" type="line"/>
      <point x="448" y="16" type="line"/>
      <point x="448" y="280" type="line"/>
      <point x="656" y="704" type="line"/>
      <point x="656" y="752" type="line"/>
      <point x="640" y="768" type="line"/>
      <point x="532" y="768" type="line"/>
      <point x="516" y="752" type="line"/>
      <point x="350" y="464" type="line"/>
      <point x="342" y="464" type="line"/>
      <point x="172" y="752" type="line"/>
      <point x="156" y="768" type="line"/>
      <point x="48" y="768" type="line"/>
      <point x="32" y="752" type="line"/>
      <point x="32" y="704" type="line"/>
      <point x="224" y="280" type="line"/>
      <point x="224" y="16" type="line"/>
    </contour>
  </outline>
</glyph>
<glyph name="Z" format="2">
  <advance width="652"/>
  <unicode hex="005A"/>
  <anchor x="340" y="0" name="bottom"/>
  <anchor x="340" y="392" name="center"/>
  <anchor x="360" y="768" name="top"/>
  <outline>
    <contour>
      <point x="32" y="0" type="line"/>
      <point x="620" y="0" type="line"/>
      <point x="636" y="16" type="line"/>
      <point x="636" y="132" type="line"/>
      <point x="620" y="148" type="line"/>
      <point x="248" y="148" type="line"/>
      <point x="248" y="164" type="line"/>
      <point x="600" y="616" type="line"/>
      <point x="616" y="652" type="line"/>
      <point x="616" y="752" type="line"/>
      <point x="600" y="768" type="line"/>
      <point x="44" y="768" type="line"/>
      <point x="28" y="752" type="line"/>
      <point x="28" y="636" type="line"/>
      <point x="44" y="620" type="line"/>
      <point x="384" y="620" type="line"/>
      <point x="384" y="604" type="line"/>
      <point x="28" y="156" type="line"/>
      <point x="16" y="132" type="line"/>
      <point x="16" y="16" type="line"/>
    </contour>
  </outline>
</glyph>
<glyph name="a" format="2">
  <advance width="576"/>
  <unicode hex="0061"/>
  <anchor x="274" y="578" name="top"/>
  <outline>
    <contour>
      <point x="168" y="-16" type="curve"/>
      <point x="232" y="-16"/>
      <point x="288" y="8"/>
      <point x="336" y="72" type="curve"/>
      <point x="344" y="72" type="line"/>
      <point x="344" y="32"/>
      <point x="376" y="0"/>
      <point x="416" y="0" type="curve"/>
      <point x="536" y="0" type="line"/>
      <point x="552" y="16" type="line"/>
      <point x="552" y="112" type="line"/>
      <point x="536" y="128" type="line"/>
      <point x="512" y="128"/>
      <point x="504" y="136"/>
      <point x="504" y="160" type="curve" smooth="yes"/>
      <point x="504" y="376" type="line" smooth="yes"/>
      <point x="504" y="528"/>
      <point x="400" y="592"/>
      <point x="248" y="592" type="curve" smooth="yes"/>
      <point x="168" y="592"/>
      <point x="16" y="536"/>
      <point x="16" y="408" type="curve"/>
      <point x="32" y="392" type="line"/>
      <point x="128" y="392" type="line"/>
      <point x="144" y="408" type="line"/>
      <point x="152" y="432"/>
      <point x="168" y="464"/>
      <point x="248" y="464" type="curve" smooth="yes"/>
      <point x="342" y="464"/>
      <point x="336" y="416"/>
      <point x="336" y="376" type="curve" smooth="yes"/>
      <point x="336" y="360" type="line"/>
      <point x="328" y="352" type="line"/>
      <point x="288" y="352" type="line"/>
      <point x="104" y="352"/>
      <point x="-24" y="304"/>
      <point x="-24" y="160" type="curve" smooth="yes"/>
      <point x="-24" y="56"/>
      <point x="56" y="-16"/>
    </contour>
    <contour>
      <point x="232" y="110" type="curve" smooth="yes"/>
      <point x="172" y="110"/>
      <point x="152" y="136"/>
      <point x="152" y="160" type="curve" smooth="yes"/>
      <point x="152" y="240"/>
      <point x="248" y="248"/>
      <point x="320" y="248" type="curve"/>
      <point x="328" y="248" type="line"/>
      <point x="336" y="240" type="line"/>
      <point x="336" y="216" type="line"/>
      <point x="336" y="136"/>
      <point x="280" y="110"/>
    </contour>
  </outline>
</glyph>
<glyph name="b" format="2">
  <advance width="680"/>
  <unicode hex="0062"/>
  <outline>
    <contour>
      <point x="80" y="0" type="line"/>
      <point x="240" y="0" type="line"/>
      <point x="256" y="16" type="line"/>
      <point x="256" y="64" type="line"/>
      <point x="264" y="64" type="line"/>
      <point x="288" y="28"/>
      <point x="336" y="-16"/>
      <point x="400" y="-16" type="curve" smooth="yes"/>
      <point x="544" y="-16"/>
      <point x="616" y="124"/>
      <point x="616" y="288" type="curve" smooth="yes"/>
      <point x="616" y="452"/>
      <point x="544" y="592"/>
      <point x="400" y="592" type="curve" smooth="yes"/>
      <point x="328" y="592"/>
      <point x="288" y="556"/>
      <point x="264" y="512" type="curve"/>
      <point x="256" y="512" type="line"/>
      <point x="256" y="752" type="line"/>
      <point x="240" y="768" type="line"/>
      <point x="80" y="768" type="line"/>
      <point x="64" y="752" type="line"/>
      <point x="64" y="16" type="line"/>
    </contour>
    <contour>
      <point x="348" y="448" type="curve" smooth="yes"/>
      <point x="420" y="448"/>
      <point x="440" y="384"/>
      <point x="440" y="288" type="curve" smooth="yes"/>
      <point x="440" y="192"/>
      <point x="420" y="128"/>
      <point x="348" y="128" type="curve" smooth="yes"/>
      <point x="284" y="128"/>
      <point x="248" y="192"/>
      <point x="248" y="288" type="curve" smooth="yes"/>
      <point x="248" y="384"/>
      <point x="284" y="448"/>
    </contour>
  </outline>
</glyph>
<glyph name="c" format="2">
  <advance width="628"/>
  <unicode hex="0063"/>
  <outline>
    <contour>
      <point x="308" y="-16" type="curve" smooth="yes"/>
      <point x="468" y="-16"/>
      <point x="528" y="70"/>
      <point x="556" y="176" type="curve"/>
      <point x="556" y="192" type="line"/>
      <point x="540" y="208" type="line"/>
      <point x="576" y="208" type="line"/>
      <point x="560" y="192" type="line"/>
      <point x="540" y="164"/>
      <point x="484" y="136"/>
      <point x="308" y="136" type="curve" smooth="yes"/>
      <point x="246" y="136"/>
      <point x="212" y="194"/>
      <point x="212" y="288" type="curve" smooth="yes"/>
      <point x="212" y="382"/>
      <point x="246" y="440"/>
      <point x="308" y="440" type="curve" smooth="yes"/>
      <point x="360" y="440"/>
      <point x="392" y="406"/>
      <point x="400" y="384" type="curve"/>
      <point x="416" y="368" type="line"/>
      <point x="576" y="368" type="line"/>
      <point x="592" y="384" type="line"/>
      <point x="556" y="408" type="line"/>
      <point x="532" y="484"/>
      <point x="462" y="592"/>
      <point x="308" y="592" type="curve" smooth="yes"/>
      <point x="132" y="592"/>
      <point x="32" y="464"/>
      <point x="32" y="288" type="curve" smooth="yes"/>
      <point x="32" y="112"/>
      <point x="132" y="-16"/>
    </contour>
  </outline>
</glyph>
<glyph name="d" format="2">
  <advance width="712"/>
  <unicode hex="0064"/>
  <outline>
    <contour>
      <point x="632" y="0" type="line"/>
      <point x="648" y="16" type="line"/>
      <point x="648" y="752" type="line"/>
      <point x="632" y="768" type="line"/>
      <point x="472" y="768" type="line"/>
      <point x="456" y="752" type="line"/>
      <point x="456" y="512" type="line"/>
      <point x="448" y="512" type="line"/>
      <point x="424" y="560"/>
      <point x="376" y="592"/>
      <point x="312" y="592" type="curve" smooth="yes"/>
      <point x="168" y="592"/>
      <point x="96" y="464"/>
      <point x="96" y="288" type="curve" smooth="yes"/>
      <point x="96" y="112"/>
      <point x="168" y="-16"/>
      <point x="312" y="-16" type="curve" smooth="yes"/>
      <point x="376" y="-16"/>
      <point x="424" y="24"/>
      <point x="448" y="72" type="curve"/>
      <point x="456" y="72" type="line"/>
      <point x="456" y="16" type="line"/>
      <point x="472" y="0" type="line"/>
    </contour>
    <contour>
      <point x="356" y="448" type="curve" smooth="yes"/>
      <point x="428" y="448"/>
      <point x="464" y="384"/>
      <point x="464" y="288" type="curve" smooth="yes"/>
      <point x="464" y="192"/>
      <point x="428" y="128"/>
      <point x="356" y="128" type="curve" smooth="yes"/>
      <point x="292" y="128"/>
      <point x="268" y="192"/>
      <point x="268" y="288" type="curve" smooth="yes"/>
      <point x="268" y="384"/>
      <point x="292" y="448"/>
    </contour>
  </outline>
</glyph>
<glyph name="e" format="2">
  <advance width="652"/>
  <unicode hex="0065"/>
  <outline>
    <contour>
      <point x="224" y="346" type="line"/>
      <point x="216" y="354" type="line"/>
      <point x="216" y="392"/>
      <point x="252" y="440"/>
      <point x="308" y="440" type="curve" smooth="yes"/>
      <point x="376" y="440"/>
      <point x="400" y="392"/>
      <point x="400" y="354" type="curve"/>
      <point x="392" y="346" type="line"/>
    </contour>
    <contour>
      <point x="308" y="-16" type="curve" smooth="yes"/>
      <point x="472" y="-16"/>
      <point x="562" y="86"/>
      <point x="562" y="168" type="curve"/>
      <point x="546" y="184" type="line"/>
      <point x="576" y="184" type="line"/>
      <point x="568" y="176" type="line"/>
      <point x="544" y="142"/>
      <point x="484" y="136"/>
      <point x="308" y="136" type="curve" smooth="yes"/>
      <point x="252" y="136"/>
      <point x="224" y="188"/>
      <point x="216" y="248" type="curve"/>
      <point x="224" y="256" type="line"/>
      <point x="588" y="256" type="line"/>
      <point x="604" y="272" type="line"/>
      <point x="604" y="304" type="line" smooth="yes"/>
      <point x="604" y="496"/>
      <point x="486" y="592"/>
      <point x="308" y="592" type="curve" smooth="yes"/>
      <point x="140" y="592"/>
      <point x="32" y="464"/>
      <point x="32" y="288" type="curve" smooth="yes"/>
      <point x="32" y="112"/>
      <point x="140" y="-16"/>
    </contour>
  </outline>
</glyph>
<glyph name="f" format="2">
  <advance width="394"/>
  <unicode hex="0066"/>
  <outline>
    <contour>
      <point x="104" y="0" type="line"/>
      <point x="264" y="0" type="line"/>
      <point x="280" y="16" type="line"/>
      <point x="280" y="440" type="line"/>
      <point x="288" y="448" type="line"/>
      <point x="354" y="448" type="line"/>
      <point x="370" y="464" type="line"/>
      <point x="370" y="560" type="line"/>
      <point x="354" y="576" type="line"/>
      <point x="288" y="576" type="line"/>
      <point x="280" y="584" type="line"/>
      <point x="280" y="616" type="line" smooth="yes"/>
      <point x="280" y="640"/>
      <point x="288" y="656"/>
      <point x="312" y="656" type="curve" smooth="yes"/>
      <point x="354" y="656" type="line"/>
      <point x="370" y="672" type="line"/>
      <point x="370" y="752" type="line"/>
      <point x="354" y="768" type="line"/>
      <point x="304" y="768" type="line" smooth="yes"/>
      <point x="176" y="768"/>
      <point x="104" y="720"/>
      <point x="104" y="624" type="curve" smooth="yes"/>
      <point x="104" y="584" type="line"/>
      <point x="96" y="576" type="line"/>
      <point x="40" y="576" type="line"/>
      <point x="24" y="560" type="line"/>
      <point x="24" y="464" type="line"/>
      <point x="40" y="448" type="line"/>
      <point x="96" y="448" type="line"/>
      <point x="104" y="440" type="line"/>
      <point x="104" y="16" type="line"/>
    </contour>
  </outline>
</glyph>
<glyph name="g" format="2">
  <advance width="690"/>
  <unicode hex="0067"/>
  <anchor x="266" y="-224" name="bottom"/>
  <anchor x="254" y="576" name="top"/>
  <outline>
    <contour>
      <point x="610" y="576" type="line"/>
      <point x="450" y="576" type="line"/>
      <point x="434" y="560" type="line"/>
      <point x="426" y="512" type="line"/>
      <point x="418" y="512" type="line"/>
      <point x="394" y="556"/>
      <point x="342" y="592"/>
      <point x="282" y="592" type="curve" smooth="yes"/>
      <point x="138" y="592"/>
      <point x="70" y="452"/>
      <point x="70" y="288" type="curve" smooth="yes"/>
      <point x="70" y="172"/>
      <point x="138" y="16"/>
      <point x="282" y="16" type="curve" smooth="yes"/>
      <point x="362" y="16"/>
      <point x="394" y="52"/>
      <point x="418" y="96" type="curve"/>
      <point x="426" y="88" type="line"/>
      <point x="426" y="16" type="line" smooth="yes"/>
      <point x="426" y="-100"/>
      <point x="374" y="-152"/>
      <point x="290" y="-152" type="curve" smooth="yes"/>
      <point x="210" y="-152"/>
      <point x="170" y="-104"/>
      <point x="162" y="-76" type="curve"/>
      <point x="146" y="-60" type="line"/>
      <point x="26" y="-60" type="line"/>
      <point x="10" y="-76" type="line"/>
      <point x="10" y="-92" type="line"/>
      <point x="22" y="-164"/>
      <point x="114" y="-240"/>
      <point x="290" y="-240" type="curve" smooth="yes"/>
      <point x="502" y="-240"/>
      <point x="610" y="-148"/>
      <point x="610" y="64" type="curve" smooth="yes"/>
      <point x="610" y="560" type="line"/>
    </contour>
    <contour>
      <point x="330" y="144" type="curve" smooth="yes"/>
      <point x="272" y="144"/>
      <point x="246" y="212"/>
      <point x="246" y="288" type="curve" smooth="yes"/>
      <point x="246" y="392"/>
      <point x="272" y="448"/>
      <point x="330" y="448" type="curve" smooth="yes"/>
      <point x="388" y="448"/>
      <point x="434" y="392"/>
      <point x="434" y="288" type="curve" smooth="yes"/>
      <point x="434" y="204"/>
      <point x="388" y="144"/>
    </contour>
  </outline>
</glyph>
<glyph name="h" format="2">
  <advance width="592"/>
  <unicode hex="0068"/>
  <outline>
    <contour>
      <point x="80" y="0" type="line"/>
      <point x="144" y="0" type="line"/>
      <point x="160" y="16" type="line"/>
      <point x="160" y="352" type="line" smooth="yes"/>
      <point x="160" y="454"/>
      <point x="200" y="512"/>
      <point x="296" y="512" type="curve" smooth="yes"/>
      <point x="392" y="512"/>
      <point x="432" y="454"/>
      <point x="432" y="352" type="curve" smooth="yes"/>
      <point x="432" y="16" type="line"/>
      <point x="448" y="0" type="line"/>
      <point x="512" y="0" type="line"/>
      <point x="528" y="16" type="line"/>
      <point x="528" y="384" type="line" smooth="yes"/>
      <point x="528" y="512"/>
      <point x="456" y="592"/>
      <point x="328" y="592" type="curve" smooth="yes"/>
      <point x="264" y="592"/>
      <point x="200" y="560"/>
      <point x="168" y="512" type="curve"/>
      <point x="160" y="512" type="line"/>
      <point x="160" y="752" type="line"/>
      <point x="144" y="768" type="line"/>
      <point x="80" y="768" type="line"/>
      <point x="64" y="752" type="line"/>
      <point x="64" y="16" type="line"/>
    </contour>
  </outline>
</glyph>
<glyph name="i" format="2">
  <advance width="296"/>
  <unicode hex="0069"/>
  <outline>
    <contour>
      <point x="68" y="656" type="line"/>
      <point x="228" y="656" type="line"/>
      <point x="244" y="672" type="line"/>
      <point x="244" y="752" type="line"/>
      <point x="228" y="768" type="line"/>
      <point x="68" y="768" type="line"/>
      <point x="52" y="752" type="line"/>
      <point x="52" y="672" type="line"/>
    </contour>
    <contour>
      <point x="68" y="0" type="line"/>
      <point x="228" y="0" type="line"/>
      <point x="244" y="16" type="line"/>
      <point x="244" y="560" type="line"/>
      <point x="228" y="576" type="line"/>
      <point x="68" y="576" type="line"/>
      <point x="52" y="560" type="line"/>
      <point x="52" y="16" type="line"/>
    </contour>
  </outline>
</glyph>
<glyph name="j" format="2">
  <advance width="308"/>
  <unicode hex="006A"/>
  <outline>
    <contour>
      <point x="-16" y="-200" type="line"/>
      <point x="56" y="-200" type="line" smooth="yes"/>
      <point x="188" y="-200"/>
      <point x="260" y="-156"/>
      <point x="260" y="-52" type="curve" smooth="yes"/>
      <point x="260" y="560" type="line"/>
      <point x="244" y="576" type="line"/>
      <point x="84" y="576" type="line"/>
      <point x="68" y="560" type="line"/>
      <point x="68" y="-52" type="line" smooth="yes"/>
      <point x="68" y="-68"/>
      <point x="64" y="-76"/>
      <point x="48" y="-76" type="curve" smooth="yes"/>
      <point x="-16" y="-76" type="line"/>
      <point x="-32" y="-92" type="line"/>
      <point x="-32" y="-184" type="line"/>
    </contour>
    <contour>
      <point x="80" y="656" type="line"/>
      <point x="240" y="656" type="line"/>
      <point x="256" y="672" type="line"/>
      <point x="256" y="752" type="line"/>
      <point x="240" y="768" type="line"/>
      <point x="80" y="768" type="line"/>
      <point x="64" y="752" type="line"/>
      <point x="64" y="672" type="line"/>
    </contour>
  </outline>
</glyph>
<glyph name="k" format="2">
  <advance width="604"/>
  <unicode hex="006B"/>
  <anchor x="300" y="0" name="bottom"/>
  <anchor x="300" y="800" name="top"/>
  <outline>
    <contour>
      <point x="80" y="0" type="line"/>
      <point x="240" y="0" type="line"/>
      <point x="256" y="16" type="line"/>
      <point x="256" y="148" type="line"/>
      <point x="322" y="222" type="line"/>
      <point x="330" y="222" type="line"/>
      <point x="494" y="0" type="line"/>
      <point x="556" y="0" type="line"/>
      <point x="572" y="16" type="line"/>
      <point x="572" y="96" type="line"/>
      <point x="410" y="312" type="line"/>
      <point x="410" y="320" type="line"/>
      <point x="572" y="536" type="line"/>
      <point x="572" y="560" type="line"/>
      <point x="556" y="576" type="line"/>
      <point x="476" y="576" type="line"/>
      <point x="264" y="320" type="line"/>
      <point x="256" y="320" type="line"/>
      <point x="256" y="752" type="line"/>
      <point x="240" y="768" type="line"/>
      <point x="80" y="768" type="line"/>
      <point x="64" y="752" type="line"/>
      <point x="64" y="16" type="line"/>
    </contour>
  </outline>
</glyph>
<glyph name="l" format="2">
  <advance width="320"/>
  <unicode hex="006C"/>
  <outline>
    <contour>
      <point x="208" y="0" type="curve" smooth="yes"/>
      <point x="288" y="0" type="line"/>
      <point x="304" y="16" type="line"/>
      <point x="304" y="96" type="line"/>
      <point x="288" y="112" type="line"/>
      <point x="264" y="112" type="line" smooth="yes"/>
      <point x="252" y="112"/>
      <point x="248" y="120"/>
      <point x="248" y="136" type="curve" smooth="yes"/>
      <point x="248" y="752" type="line"/>
      <point x="232" y="768" type="line"/>
      <point x="72" y="768" type="line"/>
      <point x="56" y="752" type="line"/>
      <point x="56" y="112" type="line" smooth="yes"/>
      <point x="56" y="48"/>
      <point x="112" y="0"/>
    </contour>
  </outline>
</glyph>
<glyph name="m" format="2">
  <advance width="920"/>
  <unicode hex="006D"/>
  <outline>
    <contour>
      <point x="80" y="0" type="line"/>
      <point x="152" y="0" type="line"/>
      <point x="168" y="16" type="line"/>
      <point x="168" y="352" type="line" smooth="yes"/>
      <point x="168" y="448"/>
      <point x="192" y="504"/>
      <point x="288" y="504" type="curve" smooth="yes"/>
      <point x="384" y="504"/>
      <point x="408" y="448"/>
      <point x="408" y="352" type="curve" smooth="yes"/>
      <point x="408" y="16" type="line"/>
      <point x="424" y="0" type="line"/>
      <point x="496" y="0" type="line"/>
      <point x="512" y="16" type="line"/>
      <point x="512" y="352" type="line" smooth="yes"/>
      <point x="512" y="448"/>
      <point x="536" y="504"/>
      <point x="632" y="504" type="curve" smooth="yes"/>
      <point x="728" y="504"/>
      <point x="752" y="448"/>
      <point x="752" y="352" type="curve" smooth="yes"/>
      <point x="752" y="16" type="line"/>
      <point x="768" y="0" type="line"/>
      <point x="840" y="0" type="line"/>
      <point x="856" y="16" type="line"/>
      <point x="856" y="352" type="line" smooth="yes"/>
      <point x="856" y="496"/>
      <point x="808" y="592"/>
      <point x="648" y="592" type="curve" smooth="yes"/>
      <point x="568" y="592"/>
      <point x="504" y="560"/>
      <point x="480" y="512" type="curve"/>
      <point x="472" y="512" type="line"/>
      <point x="456" y="560"/>
      <point x="400" y="592"/>
      <point x="320" y="592" type="curve" smooth="yes"/>
      <point x="240" y="592"/>
      <point x="188" y="552"/>
      <point x="172" y="512" type="curve"/>
      <point x="164" y="512" type="line"/>
      <point x="156" y="560" type="line"/>
      <point x="140" y="576" type="line"/>
      <point x="80" y="576" type="line"/>
      <point x="64" y="560" type="line"/>
      <point x="64" y="16" type="line"/>
    </contour>
  </outline>
</glyph>
<glyph name="n" format="2">
  <advance width="664"/>
  <unicode hex="006E"/>
  <outline>
    <contour>
      <point x="80" y="0" type="line"/>
      <point x="240" y="0" type="line"/>
      <point x="256" y="16" type="line"/>
      <point x="256" y="342" type="line" smooth="yes"/>
      <point x="256" y="406"/>
      <point x="272" y="446"/>
      <point x="332" y="446" type="curve" smooth="yes"/>
      <point x="392" y="446"/>
      <point x="408" y="406"/>
      <point x="408" y="342" type="curve" smooth="yes"/>
      <point x="408" y="16" type="line"/>
      <point x="424" y="0" type="line"/>
      <point x="584" y="0" type="line"/>
      <point x="600" y="16" type="line"/>
      <point x="600" y="376" type="line" smooth="yes"/>
      <point x="600" y="504"/>
      <point x="536" y="592"/>
      <point x="408" y="592" type="curve" smooth="yes"/>
      <point x="344" y="592"/>
      <point x="288" y="560"/>
      <point x="256" y="512" type="curve"/>
      <point x="248" y="512" type="line"/>
      <point x="240" y="560" type="line"/>
      <point x="224" y="576" type="line"/>
      <point x="80" y="576" type="line"/>
      <point x="64" y="560" type="line"/>
      <point x="64" y="16" type="line"/>
    </contour>
  </outline>
</glyph>
<glyph name="o" format="2">
  <advance width="632"/>
  <unicode hex="006F"/>
  <outline>
    <contour>
      <point x="316" y="-16" type="curve" smooth="yes"/>
      <point x="488" y="-16"/>
      <point x="610" y="110"/>
      <point x="612" y="288" type="curve" smooth="yes"/>
      <point x="614" y="466"/>
      <point x="492" y="592"/>
      <point x="316" y="592" type="curve" smooth="yes"/>
      <point x="142" y="592"/>
      <point x="20" y="466"/>
      <point x="20" y="288" type="curve" smooth="yes"/>
      <point x="20" y="110"/>
      <point x="142" y="-16"/>
    </contour>
    <contour>
      <point x="316" y="136" type="curve" smooth="yes"/>
      <point x="258" y="136"/>
      <point x="216" y="190"/>
      <point x="216" y="288" type="curve" smooth="yes"/>
      <point x="216" y="388"/>
      <point x="258" y="442"/>
      <point x="316" y="440" type="curve" smooth="yes"/>
      <point x="374" y="438"/>
      <point x="416" y="384"/>
      <point x="416" y="288" type="curve" smooth="yes"/>
      <point x="416" y="190"/>
      <point x="374" y="136"/>
    </contour>
  </outline>
</glyph>
<glyph name="p" format="2">
  <advance width="690"/>
  <unicode hex="0070"/>
  <outline>
    <contour>
      <point x="80" y="-200" type="line"/>
      <point x="240" y="-200" type="line"/>
      <point x="256" y="-184" type="line"/>
      <point x="256" y="64" type="line"/>
      <point x="264" y="64" type="line"/>
      <point x="292" y="20"/>
      <point x="344" y="-16"/>
      <point x="416" y="-16" type="curve" smooth="yes"/>
      <point x="564" y="-16"/>
      <point x="642" y="112"/>
      <point x="642" y="288" type="curve" smooth="yes"/>
      <point x="642" y="464"/>
      <point x="564" y="592"/>
      <point x="416" y="592" type="curve" smooth="yes"/>
      <point x="352" y="592"/>
      <point x="292" y="556"/>
      <point x="264" y="512" type="curve"/>
      <point x="256" y="512" type="line"/>
      <point x="248" y="560" type="line"/>
      <point x="232" y="576" type="line"/>
      <point x="80" y="576" type="line"/>
      <point x="64" y="560" type="line"/>
      <point x="64" y="-184" type="line"/>
    </contour>
    <contour>
      <point x="370" y="128" type="curve" smooth="yes"/>
      <point x="298" y="128"/>
      <point x="256" y="192"/>
      <point x="256" y="288" type="curve" smooth="yes"/>
      <point x="256" y="384"/>
      <point x="298" y="448"/>
      <point x="370" y="448" type="curve" smooth="yes"/>
      <point x="442" y="448"/>
      <point x="470" y="384"/>
      <point x="470" y="288" type="curve" smooth="yes"/>
      <point x="470" y="192"/>
      <point x="442" y="128"/>
    </contour>
  </outline>
</glyph>
<glyph name="q" format="2">
  <advance width="704"/>
  <unicode hex="0071"/>
  <outline>
    <contour>
      <point x="624" y="-200" type="line"/>
      <point x="640" y="-184" type="line"/>
      <point x="640" y="560" type="line"/>
      <point x="624" y="576" type="line"/>
      <point x="464" y="576" type="line"/>
      <point x="448" y="560" type="line"/>
      <point x="440" y="512" type="line"/>
      <point x="432" y="512" type="line"/>
      <point x="404" y="556"/>
      <point x="348" y="592"/>
      <point x="288" y="592" type="curve" smooth="yes"/>
      <point x="140" y="592"/>
      <point x="62" y="464"/>
      <point x="62" y="288" type="curve" smooth="yes"/>
      <point x="62" y="112"/>
      <point x="140" y="-16"/>
      <point x="288" y="-16" type="curve" smooth="yes"/>
      <point x="360" y="-16"/>
      <point x="404" y="20"/>
      <point x="432" y="64" type="curve"/>
      <point x="440" y="56" type="line"/>
      <point x="440" y="-184" type="line"/>
      <point x="456" y="-200" type="line"/>
    </contour>
    <contour>
      <point x="334" y="128" type="curve" smooth="yes"/>
      <point x="262" y="128"/>
      <point x="234" y="192"/>
      <point x="234" y="288" type="curve" smooth="yes"/>
      <point x="234" y="384"/>
      <point x="262" y="448"/>
      <point x="334" y="448" type="curve" smooth="yes"/>
      <point x="406" y="448"/>
      <point x="448" y="384"/>
      <point x="448" y="288" type="curve" smooth="yes"/>
      <point x="448" y="192"/>
      <point x="406" y="128"/>
    </contour>
  </outline>
</glyph>
<glyph name="r" format="2">
  <advance width="416"/>
  <unicode hex="0072"/>
  <outline>
    <contour>
      <point x="80" y="0" type="line"/>
      <point x="240" y="0" type="line"/>
      <point x="256" y="16" type="line"/>
      <point x="256" y="328" type="line" smooth="yes"/>
      <point x="256" y="408"/>
      <point x="268" y="432"/>
      <point x="324" y="432" type="curve" smooth="yes"/>
      <point x="368" y="432" type="line"/>
      <point x="384" y="448" type="line"/>
      <point x="384" y="560" type="line"/>
      <point x="368" y="576" type="line"/>
      <point x="324" y="576" type="line" smooth="yes"/>
      <point x="284" y="576"/>
      <point x="244" y="560"/>
      <point x="264" y="512" type="curve"/>
      <point x="256" y="512" type="line"/>
      <point x="248" y="560" type="line"/>
      <point x="232" y="576" type="line"/>
      <point x="80" y="576" type="line"/>
      <point x="64" y="560" type="line"/>
      <point x="64" y="16" type="line"/>
    </contour>
  </outline>
</glyph>
<glyph name="s" format="2">
  <advance width="608"/>
  <unicode hex="0073"/>
  <outline>
    <contour>
      <point x="300" y="-16" type="curve" smooth="yes"/>
      <point x="468" y="-16"/>
      <point x="560" y="52"/>
      <point x="560" y="168" type="curve" smooth="yes"/>
      <point x="560" y="268"/>
      <point x="482" y="312"/>
      <point x="358" y="346" type="curve" smooth="yes"/>
      <point x="326" y="354" type="line" smooth="yes"/>
      <point x="260" y="372"/>
      <point x="236" y="384"/>
      <point x="236" y="408" type="curve" smooth="yes"/>
      <point x="236" y="432"/>
      <point x="260" y="448"/>
      <point x="292" y="448" type="curve" smooth="yes"/>
      <point x="332" y="448"/>
      <point x="368" y="428"/>
      <point x="368" y="396" type="curve"/>
      <point x="384" y="380" type="line"/>
      <point x="528" y="380" type="line"/>
      <point x="544" y="396" type="line"/>
      <point x="542" y="426" type="line"/>
      <point x="526" y="530"/>
      <point x="432" y="592"/>
      <point x="292" y="592" type="curve" smooth="yes"/>
      <point x="124" y="592"/>
      <point x="44" y="512"/>
      <point x="44" y="408" type="curve" smooth="yes"/>
      <point x="44" y="304"/>
      <point x="132" y="266"/>
      <point x="254" y="234" type="curve" smooth="yes"/>
      <point x="286" y="226" type="line" smooth="yes"/>
      <point x="352" y="210"/>
      <point x="368" y="200"/>
      <point x="368" y="176" type="curve" smooth="yes"/>
      <point x="368" y="152"/>
      <point x="344" y="136"/>
      <point x="300" y="136" type="curve" smooth="yes"/>
      <point x="256" y="136"/>
      <point x="212" y="156"/>
      <point x="212" y="204" type="curve"/>
      <point x="196" y="220" type="line"/>
      <point x="52" y="220" type="line"/>
      <point x="36" y="204" type="line"/>
      <point x="36" y="176" type="line"/>
      <point x="48" y="58"/>
      <point x="140" y="-16"/>
    </contour>
  </outline>
</glyph>
<glyph name="t" format="2">
  <advance width="406"/>
  <unicode hex="0074"/>
  <outline>
    <contour>
      <point x="256" y="0" type="curve" smooth="yes"/>
      <point x="368" y="0" type="line"/>
      <point x="384" y="16" type="line"/>
      <point x="384" y="88" type="line"/>
      <point x="368" y="104" type="line"/>
      <point x="288" y="104" type="line" smooth="yes"/>
      <point x="272" y="104"/>
      <point x="264" y="112"/>
      <point x="264" y="128" type="curve" smooth="yes"/>
      <point x="264" y="440" type="line"/>
      <point x="272" y="448" type="line"/>
      <point x="368" y="448" type="line"/>
      <point x="384" y="464" type="line"/>
      <point x="384" y="560" type="line"/>
      <point x="368" y="576" type="line"/>
      <point x="272" y="576" type="line"/>
      <point x="264" y="584" type="line"/>
      <point x="264" y="720" type="line"/>
      <point x="248" y="736" type="line"/>
      <point x="88" y="736" type="line"/>
      <point x="72" y="720" type="line"/>
      <point x="72" y="584" type="line"/>
      <point x="64" y="576" type="line"/>
      <point x="24" y="576" type="line"/>
      <point x="8" y="560" type="line"/>
      <point x="8" y="464" type="line"/>
      <point x="24" y="448" type="line"/>
      <point x="64" y="448" type="line"/>
      <point x="72" y="440" type="line"/>
      <point x="72" y="128" type="line" smooth="yes"/>
      <point x="72" y="32"/>
      <point x="128" y="0"/>
    </contour>
  </outline>
</glyph>
<glyph name="u" format="2">
  <advance width="656"/>
  <unicode hex="0075"/>
  <outline>
    <contour>
      <point x="576" y="576" type="line"/>
      <point x="416" y="576" type="line"/>
      <point x="400" y="560" type="line"/>
      <point x="400" y="224" type="line" smooth="yes"/>
      <point x="400" y="172"/>
      <point x="380" y="128"/>
      <point x="324" y="128" type="curve" smooth="yes"/>
      <point x="268" y="128"/>
      <point x="248" y="172"/>
      <point x="248" y="224" type="curve" smooth="yes"/>
      <point x="248" y="560" type="line"/>
      <point x="232" y="576" type="line"/>
      <point x="72" y="576" type="line"/>
      <point x="56" y="560" type="line"/>
      <point x="56" y="192" type="line" smooth="yes"/>
      <point x="56" y="64"/>
      <point x="144" y="-16"/>
      <point x="292" y="-16" type="curve" smooth="yes"/>
      <point x="356" y="-16"/>
      <point x="400" y="16"/>
      <point x="408" y="64" type="curve"/>
      <point x="416" y="64" type="line"/>
      <point x="400" y="16" type="line"/>
      <point x="416" y="0" type="line"/>
      <point x="576" y="0" type="line"/>
      <point x="592" y="16" type="line"/>
      <point x="592" y="560" type="line"/>
    </contour>
  </outline>
</glyph>
<glyph name="v" format="2">
  <advance width="592"/>
  <unicode hex="0076"/>
  <outline>
    <contour>
      <point x="214" y="0" type="line"/>
      <point x="378" y="0" type="line"/>
      <point x="394" y="16" type="line"/>
      <point x="568" y="512" type="line"/>
      <point x="568" y="560" type="line"/>
      <point x="552" y="576" type="line"/>
      <point x="430" y="576" type="line"/>
      <point x="414" y="560" type="line"/>
      <point x="300" y="184" type="line"/>
      <point x="292" y="184" type="line"/>
      <point x="178" y="560" type="line"/>
      <point x="162" y="576" type="line"/>
      <point x="40" y="576" type="line"/>
      <point x="24" y="560" type="line"/>
      <point x="24" y="512" type="line"/>
      <point x="198" y="16" type="line"/>
    </contour>
  </outline>
</glyph>
<glyph name="w" format="2">
  <advance width="880"/>
  <unicode hex="0077"/>
  <anchor x="440" y="0" name="bottom"/>
  <anchor x="440" y="576" name="top"/>
  <outline>
    <contour>
      <point x="164" y="0" type="line"/>
      <point x="310" y="0" type="line"/>
      <point x="328" y="16" type="line"/>
      <point x="420" y="368" type="line"/>
      <point x="436" y="368" type="line"/>
      <point x="528" y="16" type="line"/>
      <point x="544" y="0" type="line"/>
      <point x="692" y="0" type="line"/>
      <point x="708" y="16" type="line"/>
      <point x="840" y="512" type="line"/>
      <point x="840" y="560" type="line"/>
      <point x="824" y="576" type="line"/>
      <point x="712" y="576" type="line"/>
      <point x="696" y="560" type="line"/>
      <point x="616" y="168" type="line"/>
      <point x="600" y="168" type="line"/>
      <point x="492" y="560" type="line"/>
      <point x="476" y="576" type="line"/>
      <point x="380" y="576" type="line"/>
      <point x="364" y="560" type="line"/>
      <point x="252" y="168" type="line"/>
      <point x="240" y="168" type="line"/>
      <point x="160" y="560" type="line"/>
      <point x="144" y="576" type="line"/>
      <point x="32" y="576" type="line"/>
      <point x="16" y="560" type="line"/>
      <point x="16" y="512" type="line"/>
      <point x="148" y="16" type="line"/>
    </contour>
  </outline>
</glyph>
<glyph name="x" format="2">
  <advance width="578"/>
  <unicode hex="0078"/>
  <outline>
    <contour>
      <point x="40" y="0" type="line"/>
      <point x="132" y="0" type="line"/>
      <point x="148" y="16" type="line"/>
      <point x="260" y="184" type="line"/>
      <point x="272" y="184" type="line"/>
      <point x="430" y="16" type="line"/>
      <point x="446" y="0" type="line"/>
      <point x="538" y="0" type="line"/>
      <point x="554" y="16" type="line"/>
      <point x="554" y="88" type="line"/>
      <point x="372" y="286" type="line"/>
      <point x="372" y="302" type="line"/>
      <point x="544" y="488" type="line"/>
      <point x="544" y="560" type="line"/>
      <point x="528" y="576" type="line"/>
      <point x="436" y="576" type="line"/>
      <point x="420" y="560" type="line"/>
      <point x="272" y="406" type="line"/>
      <point x="260" y="406" type="line"/>
      <point x="158" y="560" type="line"/>
      <point x="142" y="576" type="line"/>
      <point x="50" y="576" type="line"/>
      <point x="34" y="560" type="line"/>
      <point x="34" y="488" type="line"/>
      <point x="206" y="302" type="line"/>
      <point x="206" y="286" type="line"/>
      <point x="24" y="88" type="line"/>
      <point x="24" y="16" type="line"/>
    </contour>
  </outline>
</glyph>
<glyph name="y" format="2">
  <advance width="638"/>
  <unicode hex="0079"/>
  <anchor x="330" y="0" name="bottom"/>
  <anchor x="330" y="576" name="top"/>
  <outline>
    <contour>
      <point x="40" y="-200" type="line"/>
      <point x="126" y="-200" type="line" smooth="yes"/>
      <point x="286" y="-200"/>
      <point x="332" y="-166"/>
      <point x="374" y="-72" type="curve" smooth="yes"/>
      <point x="590" y="512" type="line"/>
      <point x="590" y="560" type="line"/>
      <point x="574" y="576" type="line"/>
      <point x="478" y="576" type="line"/>
      <point x="462" y="560" type="line"/>
      <point x="332" y="190" type="line"/>
      <point x="324" y="190" type="line"/>
      <point x="202" y="560" type="line"/>
      <point x="186" y="576" type="line"/>
      <point x="88" y="576" type="line"/>
      <point x="72" y="560" type="line"/>
      <point x="72" y="512" type="line"/>
      <point x="250" y="40" type="line"/>
      <point x="250" y="24" type="line"/>
      <point x="234" y="-16" type="line" smooth="yes"/>
      <point x="218" y="-56"/>
      <point x="202" y="-76"/>
      <point x="150" y="-76" type="curve" smooth="yes"/>
      <point x="40" y="-76" type="line"/>
      <point x="24" y="-92" type="line"/>
      <point x="24" y="-184" type="line"/>
    </contour>
  </outline>
</glyph>
<glyph name="z" format="2">
  <advance width="576"/>
  <unicode hex="007A"/>
  <anchor x="288" y="0" name="bottom"/>
  <anchor x="288" y="280" name="center"/>
  <anchor x="288" y="576" name="top"/>
  <outline>
    <contour>
      <point x="40" y="0" type="line"/>
      <point x="536" y="0" type="line"/>
      <point x="552" y="16" type="line"/>
      <point x="552" y="112" type="line"/>
      <point x="536" y="128" type="line"/>
      <point x="264" y="128" type="line"/>
      <point x="264" y="136" type="line"/>
      <point x="524" y="472" type="line"/>
      <point x="536" y="488" type="line"/>
      <point x="536" y="560" type="line"/>
      <point x="520" y="576" type="line"/>
      <point x="48" y="576" type="line"/>
      <point x="32" y="560" type="line"/>
      <point x="32" y="464" type="line"/>
      <point x="48" y="448" type="line"/>
      <point x="296" y="448" type="line"/>
      <point x="296" y="440" type="line"/>
      <point x="36" y="104" type="line"/>
      <point x="24" y="88" type="line"/>
      <point x="24" y="16" type="line"/>
    </contour>
  </outline>
</glyph>
<glyph name="E008" format="2">
  <advance width="768"/>
  <unicode hex="E008"/>
  <outline>
    <contour>
      <point x="64" y="120" type="line"/>
      <point x="112" y="120" type="line"/>
      <point x="112" y="352" type="line"/>
      <point x="64" y="352" type="line"/>
    </contour>
    <contour>
      <point x="64" y="416" type="line"/>
      <point x="112" y="416" type="line"/>
      <point x="112" y="648" type="line"/>
      <point x="64" y="648" type="line"/>
    </contour>
    <contour>
      <point x="360" y="120" type="line"/>
      <point x="408" y="120" type="line"/>
      <point x="408" y="352" type="line"/>
      <point x="360" y="352" type="line"/>
    </contour>
    <contour>
      <point x="360" y="416" type="line"/>
      <point x="408" y="416" type="line"/>
      <point x="408" y="648" type="line"/>
      <point x="360" y="648" type="line"/>
    </contour>
    <contour>
      <point x="656" y="120" type="line"/>
      <point x="704" y="120" type="line"/>
      <point x="704" y="352" type="line"/>
      <point x="656" y="352" type="line"/>
    </contour>
    <contour>
      <point x="656" y="416" type="line"/>
      <point x="704" y="416" type="line"/>
      <point x="704" y="648" type="line"/>
      <point x="656" y="648" type="line"/>
    </contour>
    <contour>
      <point x="416" y="656" type="line"/>
      <point x="648" y="656" type="line"/>
      <point x="648" y="704" type="line"/>
      <point x="416" y="704" type="line"/>
    </contour>
    <contour>
      <point x="120" y="656" type="line"/>
      <point x="352" y="656" type="line"/>
      <point x="352" y="704" type="line"/>
      <point x="120" y="704" type="line"/>
    </contour>
    <contour>
      <point x="416" y="360" type="line"/>
      <point x="648" y="360" type="line"/>
      <point x="648" y="408" type="line"/>
      <point x="416" y="408" type="line"/>
    </contour>
    <contour>
      <point x="120" y="360" type="line"/>
      <point x="352" y="360" type="line"/>
      <point x="352" y="408" type="line"/>
      <point x="120" y="408" type="line"/>
    </contour>
    <contour>
      <point x="416" y="64" type="line"/>
      <point x="648" y="64" type="line"/>
      <point x="648" y="112" type="line"/>
      <point x="416" y="112" type="line"/>
    </contour>
    <contour>
      <point x="120" y="64" type="line"/>
      <point x="352" y="64" type="line"/>
      <point x="352" y="112" type="line"/>
      <point x="120" y="112" type="line"/>
    </contour>
    <contour>
      <point x="384" y="56" type="curve" smooth="yes"/>
      <point x="402" y="56"/>
      <point x="416" y="70"/>
      <point x="416" y="88" type="curve" smooth="yes"/>
      <point x="416" y="106"/>
      <point x="402" y="120"/>
      <point x="384" y="120" type="curve" smooth="yes"/>
      <point x="366" y="120"/>
      <point x="352" y="106"/>
      <point x="352" y="88" type="curve" smooth="yes"/>
      <point x="352" y="70"/>
      <point x="366" y="56"/>
    </contour>
    <contour>
      <point x="88" y="352" type="curve" smooth="yes"/>
      <point x="106" y="352"/>
      <point x="120" y="366"/>
      <point x="120" y="384" type="curve" smooth="yes"/>
      <point x="120" y="402"/>
      <point x="106" y="416"/>
      <point x="88" y="416" type="curve" smooth="yes"/>
      <point x="70" y="416"/>
      <point x="56" y="402"/>
      <point x="56" y="384" type="curve" smooth="yes"/>
      <point x="56" y="366"/>
      <point x="70" y="352"/>
    </contour>
    <contour>
      <point x="88" y="56" type="curve" smooth="yes"/>
      <point x="106" y="56"/>
      <point x="120" y="70"/>
      <point x="120" y="88" type="curve" smooth="yes"/>
      <point x="120" y="106"/>
      <point x="106" y="120"/>
      <point x="88" y="120" type="curve" smooth="yes"/>
      <point x="70" y="120"/>
      <point x="56" y="106"/>
      <point x="56" y="88" type="curve" smooth="yes"/>
      <point x="56" y="70"/>
      <point x="70" y="56"/>
    </contour>
    <contour>
      <point x="88" y="648" type="curve" smooth="yes"/>
      <point x="106" y="648"/>
      <point x="120" y="662"/>
      <point x="120" y="680" type="curve" smooth="yes"/>
      <point x="120" y="698"/>
      <point x="106" y="712"/>
      <point x="88" y="712" type="curve" smooth="yes"/>
      <point x="70" y="712"/>
      <point x="56" y="698"/>
      <point x="56" y="680" type="curve" smooth="yes"/>
      <point x="56" y="662"/>
      <point x="70" y="648"/>
    </contour>
    <contour>
      <point x="680" y="352" type="curve" smooth="yes"/>
      <point x="698" y="352"/>
      <point x="712" y="366"/>
      <point x="712" y="384" type="curve" smooth="yes"/>
      <point x="712" y="402"/>
      <point x="698" y="416"/>
      <point x="680" y="416" type="curve" smooth="yes"/>
      <point x="662" y="416"/>
      <point x="648" y="402"/>
      <point x="648" y="384" type="curve" smooth="yes"/>
      <point x="648" y="366"/>
      <point x="662" y="352"/>
    </contour>
    <contour>
      <point x="680" y="56" type="curve" smooth="yes"/>
      <point x="698" y="56"/>
      <point x="712" y="70"/>
      <point x="712" y="88" type="curve" smooth="yes"/>
      <point x="712" y="106"/>
      <point x="698" y="120"/>
      <point x="680" y="120" type="curve" smooth="yes"/>
      <point x="662" y="120"/>
      <point x="648" y="106"/>
      <point x="648" y="88" type="curve" smooth="yes"/>
      <point x="648" y="70"/>
      <point x="662" y="56"/>
    </contour>
    <contour>
      <point x="680" y="648" type="curve" smooth="yes"/>
      <point x="698" y="648"/>
      <point x="712" y="662"/>
      <point x="712" y="680" type="curve" smooth="yes"/>
      <point x="712" y="698"/>
      <point x="698" y="712"/>
      <point x="680" y="712" type="curve" smooth="yes"/>
      <point x="662" y="712"/>
      <point x="648" y="698"/>
      <point x="648" y="680" type="curve" smooth="yes"/>
      <point x="648" y="662"/>
      <point x="662" y="648"/>
    </contour>
    <contour>
      <point x="384" y="354" type="curve" smooth="yes"/>
      <point x="402" y="354"/>
      <point x="416" y="366"/>
      <point x="416" y="384" type="curve" smooth="yes"/>
      <point x="416" y="402"/>
      <point x="402" y="418"/>
      <point x="384" y="418" type="curve" smooth="yes"/>
      <point x="366" y="418"/>
      <point x="352" y="404"/>
      <point x="352" y="386" type="curve" smooth="yes"/>
      <point x="352" y="368"/>
      <point x="366" y="354"/>
    </contour>
    <contour>
      <point x="384" y="648" type="curve" smooth="yes"/>
      <point x="402" y="648"/>
      <point x="416" y="662"/>
      <point x="416" y="680" type="curve" smooth="yes"/>
      <point x="416" y="698"/>
      <point x="402" y="712"/>
      <point x="384" y="712" type="curve" smooth="yes"/>
      <point x="366" y="712"/>
      <point x="352" y="698"/>
      <point x="352" y="680" type="curve" smooth="yes"/>
      <point x="352" y="662"/>
      <point x="366" y="648"/>
    </contour>
    <contour>
      <point x="384" y="288" type="curve" smooth="yes"/>
      <point x="438" y="288"/>
      <point x="480" y="332"/>
      <point x="480" y="384" type="curve" smooth="yes"/>
      <point x="480" y="438"/>
      <point x="438" y="480"/>
      <point x="384" y="480" type="curve" smooth="yes"/>
      <point x="332" y="480"/>
      <point x="288" y="438"/>
      <point x="288" y="384" type="curve" smooth="yes"/>
      <point x="288" y="332"/>
      <point x="332" y="288"/>
    </contour>
    <contour>
      <point x="680" y="288" type="curve" smooth="yes"/>
      <point x="734" y="288"/>
      <point x="776" y="332"/>
      <point x="776" y="384" type="curve" smooth="yes"/>
      <point x="776" y="438"/>
      <point x="734" y="480"/>
      <point x="680" y="480" type="curve" smooth="yes"/>
      <point x="628" y="480"/>
      <point x="584" y="438"/>
      <point x="584" y="384" type="curve" smooth="yes"/>
      <point x="584" y="332"/>
      <point x="628" y="288"/>
    </contour>
    <contour>
      <point x="88" y="288" type="curve" smooth="yes"/>
      <point x="142" y="288"/>
      <point x="184" y="332"/>
      <point x="184" y="384" type="curve" smooth="yes"/>
      <point x="184" y="438"/>
      <point x="142" y="480"/>
      <point x="88" y="480" type="curve" smooth="yes"/>
      <point x="36" y="480"/>
      <point x="-8" y="438"/>
      <point x="-8" y="384" type="curve" smooth="yes"/>
      <point x="-8" y="332"/>
      <point x="36" y="288"/>
    </contour>
    <contour>
      <point x="384" y="584" type="curve" smooth="yes"/>
      <point x="438" y="584"/>
      <point x="480" y="628"/>
      <point x="480" y="680" type="curve" smooth="yes"/>
      <point x="480" y="734"/>
      <point x="438" y="776"/>
      <point x="384" y="776" type="curve" smooth="yes"/>
      <point x="332" y="776"/>
      <point x="288" y="734"/>
      <point x="288" y="680" type="curve" smooth="yes"/>
      <point x="288" y="628"/>
      <point x="332" y="584"/>
    </contour>
    <contour>
      <point x="680" y="584" type="curve" smooth="yes"/>
      <point x="734" y="584"/>
      <point x="776" y="628"/>
      <point x="776" y="680" type="curve" smooth="yes"/>
      <point x="776" y="734"/>
      <point x="734" y="776"/>
      <point x="680" y="776" type="curve" smooth="yes"/>
      <point x="628" y="776"/>
      <point x="584" y="734"/>
      <point x="584" y="680" type="curve" smooth="yes"/>
      <point x="584" y="628"/>
      <point x="628" y="584"/>
    </contour>
    <contour>
      <point x="88" y="584" type="curve" smooth="yes"/>
      <point x="142" y="584"/>
      <point x="184" y="628"/>
      <point x="184" y="680" type="curve" smooth="yes"/>
      <point x="184" y="734"/>
      <point x="142" y="776"/>
      <point x="88" y="776" type="curve" smooth="yes"/>
      <point x="36" y="776"/>
      <point x="-8" y="734"/>
      <point x="-8" y="680" type="curve" smooth="yes"/>
      <point x="-8" y="628"/>
      <point x="36" y="584"/>
    </contour>
    <contour>
      <point x="384" y="-8" type="curve" smooth="yes"/>
      <point x="438" y="-8"/>
      <point x="480" y="36"/>
      <point x="480" y="88" type="curve" smooth="yes"/>
      <point x="480" y="142"/>
      <point x="438" y="184"/>
      <point x="384" y="184" type="curve" smooth="yes"/>
      <point x="332" y="184"/>
      <point x="288" y="142"/>
      <point x="288" y="88" type="curve" smooth="yes"/>
      <point x="288" y="36"/>
      <point x="332" y="-8"/>
    </contour>
    <contour>
      <point x="680" y="-8" type="curve" smooth="yes"/>
      <point x="734" y="-8"/>
      <point x="776" y="36"/>
      <point x="776" y="88" type="curve" smooth="yes"/>
      <point x="776" y="142"/>
      <point x="734" y="184"/>
      <point x="680" y="184" type="curve" smooth="yes"/>
      <point x="628" y="184"/>
      <point x="584" y="142"/>
      <point x="584" y="88" type="curve" smooth="yes"/>
      <point x="584" y="36"/>
      <point x="628" y="-8"/>
    </contour>
    <contour>
      <point x="88" y="-8" type="curve" smooth="yes"/>
      <point x="142" y="-8"/>
      <point x="184" y="36"/>
      <point x="184" y="88" type="curve" smooth="yes"/>
      <point x="184" y="142"/>
      <point x="142" y="184"/>
      <point x="88" y="184" type="curve" smooth="yes"/>
      <point x="36" y="184"/>
      <point x="-8" y="142"/>
      <point x="-8" y="88" type="curve" smooth="yes"/>
      <point x="-8" y="36"/>
      <point x="36" y="-8"/>
    </contour>
  </outline>
</glyph>
